  <svg 
  xmlns="http://www.w3.org/2000/svg"
    aria-hidden="true"
    role="img"
    class="iconify iconify--mdi"
    width="16"
    height="16"
    preserveAspectRatio="xMidYMid meet"
    viewBox="-1 -1.5 16 16"
  >
    <path stroke="#a3be8c" d="M3 1h10M2 2h2M12 2h2M1 3h2M13 3h2M1 4h1M11 4h1M14 4h1M1 5h1M10 5h3M14 5h1M1 6h1M9 6h3M14 6h1M1 7h1M4 7h1M8 7h3M14 7h1M1 8h1M3 8h3M7 8h3M14 8h1M1 9h1M4 9h5M14 9h1M1 10h1M5 10h3M14 10h1M1 11h1M6 11h1M14 11h1M1 12h2M13 12h2M2 13h2M12 13h2M3 14h10" />
  </svg>